<?xml version="1.0" encoding="utf-8"?>
<svg xmlns="http://www.w3.org/2000/svg"
	xmlns:xlink="http://www.w3.org/1999/xlink"
	width="17px" height="17px" viewBox="0 0 17 17">
<path fillRule="evenodd" d="M 8.18 0.7C 3.86 0.7 0.33 4.23 0.33 8.56 0.33 12.88 3.86 16.42 8.18 16.42 12.5 16.42 16.04 12.88 16.04 8.56 16.04 4.23 12.5 0.7 8.18 0.7ZM 6.61 12.49C 6.61 12.49 2.68 8.56 2.68 8.56 2.68 8.56 3.78 7.46 3.78 7.46 3.78 7.46 6.61 10.29 6.61 10.29 6.61 10.29 12.58 4.31 12.58 4.31 12.58 4.31 13.68 5.41 13.68 5.41 13.68 5.41 6.61 12.49 6.61 12.49Z" fill="rgb(255,255,255)"/></svg>
