<?xml version="1.0" encoding="utf-8"?>
<!-- Generator: Adobe Illustrator 17.1.0, SVG Export Plug-In . SVG Version: 6.00 Build 0)  -->
<!DOCTYPE svg PUBLIC "-//W3C//DTD SVG 1.1//EN" "http://www.w3.org/Graphics/SVG/1.1/DTD/svg11.dtd">
<svg version="1.1" id="Layer_1" xmlns="http://www.w3.org/2000/svg" xmlns:xlink="http://www.w3.org/1999/xlink" x="0px" y="0px"
	 viewBox="0 0 60 60" enable-background="new 0 0 60 60" xml:space="preserve">
<path fill="none" stroke="#FFFFFF" stroke-miterlimit="10" d="M53.7,25.1c0,4.4-3.6,8-8,8s-8-3.6-8-8s8-16,8-16S53.7,20.7,53.7,25.1
	z"/>
<line fill="none" stroke="#FFFFFF" stroke-miterlimit="10" x1="0.9" y1="23.4" x2="28.8" y2="36.3"/>
<path fill="none" stroke="#FFFFFF" stroke-miterlimit="10" d="M9.7,35.3l4.8,2.1c0.7,0.3,1.2,1.1,1.2,1.9l-0.3,11.6"/>
<line fill="none" stroke="#FFFFFF" stroke-miterlimit="10" x1="36.7" y1="52.5" x2="36.7" y2="47.6"/>
<line fill="none" stroke="#FFFFFF" stroke-miterlimit="10" x1="2.2" y1="26.5" x2="29.9" y2="39.3"/>
<line fill="none" stroke="#FFFFFF" stroke-miterlimit="10" x1="13.9" y1="37.2" x2="36.6" y2="47.4"/>
<line fill="none" stroke="#FFFFFF" stroke-miterlimit="10" x1="53.2" y1="22.6" x2="59" y2="25.1"/>
<line fill="none" stroke="#FFFFFF" stroke-miterlimit="10" x1="53.7" y1="25.3" x2="59" y2="27.6"/>
<line fill="none" stroke="#FFFFFF" stroke-miterlimit="10" x1="21.7" y1="8.7" x2="40.7" y2="17.1"/>
<line fill="none" stroke="#FFFFFF" stroke-miterlimit="10" x1="22.1" y1="11.4" x2="39.8" y2="19.2"/>
<path fill="none" stroke="#FFFFFF" stroke-miterlimit="10" d="M58.7,25.1c1.5,7.3-0.7,21.4-11.3,23.7c-13.8,3.1-18-10.5-18.6-12.8"
	/>
<path fill="none" stroke="#FFFFFF" stroke-miterlimit="10" d="M36.7,52c0.1,3.5-4.2,8-11.8,6.8c-9.4-1.5-9.7-7.5-9.6-9.5"/>
<path fill="none" stroke="#FFFFFF" stroke-miterlimit="10" d="M10,35.4c-6.6-2.8-8.5-10.2-8.9-11.9"/>
<path fill="none" stroke="#FFFFFF" stroke-miterlimit="10" d="M21.7,8.6c1.2,5.9,0,16.3-6,21.3"/>
<path fill="none" stroke="#FFFFFF" stroke-miterlimit="10" d="M15.3,37.8"/>
</svg>
