<?xml version="1.0" encoding="utf-8"?>
<!-- Generator: Adobe Illustrator 17.1.0, SVG Export Plug-In . SVG Version: 6.00 Build 0)  -->
<!DOCTYPE svg PUBLIC "-//W3C//DTD SVG 1.1//EN" "http://www.w3.org/Graphics/SVG/1.1/DTD/svg11.dtd">
<svg version="1.1" id="Layer_1" xmlns="http://www.w3.org/2000/svg" xmlns:xlink="http://www.w3.org/1999/xlink" x="0px" y="0px"
	 viewBox="0 0 60 60" enable-background="new 0 0 60 60" xml:space="preserve">
<g>
	<polygon fill="none" stroke="#FFFFFF" stroke-miterlimit="10" points="47.2,47.1 47.2,4.6 35,9.3 32.4,7.9 25,10.7 27.7,12.1 
		17.3,16.2 15.2,15.1 10.1,17 10.1,59 15.2,57.1 17.3,58.7 27.7,54.6 27.7,52.1 32.3,50.4 35.6,51.6 	"/>
	<line fill="none" stroke="#FFFFFF" stroke-miterlimit="10" x1="15.1" y1="15.4" x2="15.1" y2="57.1"/>
	<line fill="none" stroke="#FFFFFF" stroke-miterlimit="10" x1="17.5" y1="16.1" x2="17.6" y2="58.5"/>
	<line fill="none" stroke="#FFFFFF" stroke-miterlimit="10" x1="32.3" y1="7.7" x2="32.4" y2="50.2"/>
	<line fill="none" stroke="#FFFFFF" stroke-miterlimit="10" x1="35.2" y1="9.1" x2="35.2" y2="51.4"/>
	<line fill="none" stroke="#FFFFFF" stroke-miterlimit="10" x1="27.7" y1="12" x2="27.8" y2="54.5"/>
	<path fill="none" stroke="#FFFFFF" stroke-miterlimit="10" d="M12.7,55.2c0.7,0,1.2-0.5,1.2-1.2l0-1.9c0-0.7-0.5-1.2-1.2-1.2l0,0
		c-0.7,0-1.2,0.5-1.2,1.2l0,1.9C11.5,54.6,12,55.2,12.7,55.2L12.7,55.2z"/>
	<path fill="none" stroke="#FFFFFF" stroke-miterlimit="10" d="M12.7,40.5c0.7,0,1.2-0.5,1.2-1.2l0-1.9c0-0.7-0.5-1.2-1.2-1.2l0,0
		c-0.7,0-1.2,0.5-1.2,1.2l0,1.9C11.5,40,12,40.5,12.7,40.5L12.7,40.5z"/>
	<path fill="none" stroke="#FFFFFF" stroke-miterlimit="10" d="M12.7,23.6c0.7,0,1.2-0.5,1.2-1.2l0-1.9c0-0.7-0.5-1.2-1.2-1.2l0,0
		c-0.7,0-1.2,0.5-1.2,1.2l0,1.9C11.5,23.1,12,23.6,12.7,23.6L12.7,23.6z"/>
	<polyline fill="none" stroke="#FFFFFF" stroke-miterlimit="10" points="47.2,4.8 44.3,3.2 49.9,1 49.9,43.7 47.1,44.7 	"/>
	<line fill="none" stroke="#FFFFFF" stroke-miterlimit="10" x1="43.6" y1="3.1" x2="43.6" y2="6.1"/>
</g>
</svg>
