<?xml version="1.0" encoding="utf-8"?>
<!-- Generator: Adobe Illustrator 17.1.0, SVG Export Plug-In . SVG Version: 6.00 Build 0)  -->
<!DOCTYPE svg PUBLIC "-//W3C//DTD SVG 1.1//EN" "http://www.w3.org/Graphics/SVG/1.1/DTD/svg11.dtd">
<svg version="1.1" id="Layer_1" xmlns="http://www.w3.org/2000/svg" xmlns:xlink="http://www.w3.org/1999/xlink" x="0px" y="0px"
	 viewBox="0 0 60 60" enable-background="new 0 0 60 60" xml:space="preserve">
<g>
	<polygon fill="none" stroke="#FFFFFF" stroke-miterlimit="10" points="52.1,43.5 11.3,59.2 11.3,18.4 52.1,2.7 	"/>
	<line fill="none" stroke="#FFFFFF" stroke-miterlimit="10" x1="24.9" y1="13.1" x2="24.9" y2="54.1"/>
	<line fill="none" stroke="#FFFFFF" stroke-miterlimit="10" x1="38.5" y1="7.9" x2="38.5" y2="48.8"/>
	<line fill="none" stroke="#FFFFFF" stroke-miterlimit="10" x1="11.2" y1="32" x2="52.3" y2="16.4"/>
	<line fill="none" stroke="#FFFFFF" stroke-miterlimit="10" x1="11.3" y1="45.6" x2="52.2" y2="30"/>
	<line fill="none" stroke="#FFFFFF" stroke-miterlimit="10" x1="11.3" y1="18.4" x2="52.1" y2="43.5"/>
	<line fill="none" stroke="#FFFFFF" stroke-miterlimit="10" x1="24.9" y1="13.1" x2="52.2" y2="30"/>
	<line fill="none" stroke="#FFFFFF" stroke-miterlimit="10" x1="38.5" y1="7.9" x2="52.3" y2="16.4"/>
	<line fill="none" stroke="#FFFFFF" stroke-miterlimit="10" x1="11.2" y1="32" x2="38.5" y2="48.8"/>
	<line fill="none" stroke="#FFFFFF" stroke-miterlimit="10" x1="11.3" y1="45.6" x2="24.9" y2="54.1"/>
	<line fill="none" stroke="#FFFFFF" stroke-miterlimit="10" x1="11.3" y1="18.4" x2="7.8" y2="16.8"/>
	<line fill="none" stroke="#FFFFFF" stroke-miterlimit="10" x1="11.2" y1="59.5" x2="7.7" y2="57.9"/>
	<line fill="none" stroke="#FFFFFF" stroke-miterlimit="10" x1="52.5" y1="2.4" x2="49" y2="0.9"/>
	<line fill="none" stroke="#FFFFFF" stroke-miterlimit="10" x1="7.8" y1="16.8" x2="7.8" y2="58.1"/>
	<line fill="none" stroke="#FFFFFF" stroke-miterlimit="10" x1="49.3" y1="0.8" x2="7.5" y2="17"/>
</g>
</svg>
