<?xml version="1.0" encoding="utf-8"?>
<!-- Generator: Adobe Illustrator 17.1.0, SVG Export Plug-In . SVG Version: 6.00 Build 0)  -->
<!DOCTYPE svg PUBLIC "-//W3C//DTD SVG 1.1//EN" "http://www.w3.org/Graphics/SVG/1.1/DTD/svg11.dtd">
<svg version="1.1" id="Layer_1" xmlns="http://www.w3.org/2000/svg" xmlns:xlink="http://www.w3.org/1999/xlink" x="0px" y="0px"
	 viewBox="0 0 60 60" enable-background="new 0 0 60 60" xml:space="preserve">
<g>
	<polygon fill="none" stroke="#FFFFFF" stroke-miterlimit="10" points="47.5,56.3 40.5,59 40.5,6.2 47.5,3.5 	"/>
	<line fill="none" stroke="#FFFFFF" stroke-miterlimit="10" x1="33.5" y1="56.2" x2="40.3" y2="59.3"/>
	<path fill="none" stroke="#FFFFFF" stroke-miterlimit="10" d="M41,6.1l-6.6-2.7l6.4-2.5c0,0,6.9,2.4,7,2.4"/>
	<path fill="none" stroke="#FFFFFF" stroke-miterlimit="10" d="M47.6,3.4"/>
	<path fill="none" stroke="#FFFFFF" stroke-miterlimit="10" d="M41.3,0.9"/>
	<line fill="none" stroke="#FFFFFF" stroke-miterlimit="10" x1="33.6" y1="3.5" x2="33.6" y2="56.3"/>
	<polyline fill="none" stroke="#FFFFFF" stroke-miterlimit="10" points="33.8,22.2 20.6,16.4 20.6,11 26,8.7 33.6,12.1 	"/>
	<line fill="none" stroke="#FFFFFF" stroke-miterlimit="10" x1="20.6" y1="11" x2="33.8" y2="16.8"/>
	<path fill="none" stroke="#FFFFFF" stroke-miterlimit="10" d="M26.5,8.9"/>
	<path fill="none" stroke="#FFFFFF" stroke-miterlimit="10" d="M20.7,11.1"/>
	<path fill="none" stroke="#FFFFFF" stroke-miterlimit="10" d="M20.9,16.6"/>
	<path fill="none" stroke="#FFFFFF" stroke-miterlimit="10" d="M20.9,11"/>
	<polyline fill="none" stroke="#FFFFFF" stroke-miterlimit="10" points="23.2,17.5 12.3,21.9 12.3,12.5 28.8,5.9 28.8,10.1 	"/>
	<polyline fill="none" stroke="#FFFFFF" stroke-miterlimit="10" points="33.8,49.9 20.6,44 20.6,38.6 26,36.4 33.6,39.7 	"/>
	<line fill="none" stroke="#FFFFFF" stroke-miterlimit="10" x1="20.6" y1="38.6" x2="33.8" y2="44.5"/>
	<path fill="none" stroke="#FFFFFF" stroke-miterlimit="10" d="M26.5,36.5"/>
	<path fill="none" stroke="#FFFFFF" stroke-miterlimit="10" d="M20.7,38.8"/>
	<path fill="none" stroke="#FFFFFF" stroke-miterlimit="10" d="M20.9,44.2"/>
	<path fill="none" stroke="#FFFFFF" stroke-miterlimit="10" d="M20.9,38.6"/>
	<polyline fill="none" stroke="#FFFFFF" stroke-miterlimit="10" points="23.2,45.2 12.3,49.6 12.3,40.1 28.8,33.5 28.8,37.7 	"/>
	<ellipse fill="none" stroke="#FFFFFF" stroke-miterlimit="10" cx="37.2" cy="12.7" rx="1.6" ry="3"/>
	<ellipse fill="none" stroke="#FFFFFF" stroke-miterlimit="10" cx="37.2" cy="29.8" rx="1.6" ry="3"/>
	<ellipse fill="none" stroke="#FFFFFF" stroke-miterlimit="10" cx="37.2" cy="46.8" rx="1.6" ry="3"/>
</g>
</svg>
