<?xml version="1.0" encoding="utf-8"?>
<!-- Generator: Adobe Illustrator 17.1.0, SVG Export Plug-In . SVG Version: 6.00 Build 0)  -->
<!DOCTYPE svg PUBLIC "-//W3C//DTD SVG 1.1//EN" "http://www.w3.org/Graphics/SVG/1.1/DTD/svg11.dtd">
<svg version="1.1" id="Layer_1" xmlns="http://www.w3.org/2000/svg" xmlns:xlink="http://www.w3.org/1999/xlink" x="0px" y="0px"
	 viewBox="0 0 60 60" enable-background="new 0 0 60 60" xml:space="preserve">
<g>
	<polyline fill="none" stroke="#FFFFFF" stroke-miterlimit="10" points="20.2,56.1 39.1,21.5 59.4,41.1 	"/>
	<polyline fill="none" stroke="#FFFFFF" stroke-miterlimit="10" points="20.2,56.1 23.5,54.9 39.8,25.8 57.3,41.8 59.4,41 	"/>
	<path fill="none" stroke="#FFFFFF" stroke-miterlimit="10" d="M23.7,53.9"/>
	<line fill="none" stroke="#FFFFFF" stroke-miterlimit="10" x1="32.8" y1="18.7" x2="14.1" y2="52.9"/>
	<line fill="none" stroke="#FFFFFF" stroke-miterlimit="10" x1="26.2" y1="15.5" x2="7.1" y2="50.2"/>
	<line fill="none" stroke="#FFFFFF" stroke-miterlimit="10" x1="19.6" y1="12.4" x2="0.6" y2="47.3"/>
	<line fill="none" stroke="#FFFFFF" stroke-miterlimit="10" x1="34" y1="19" x2="34" y2="13.6"/>
	<line fill="none" stroke="#FFFFFF" stroke-miterlimit="10" x1="40.3" y1="22.6" x2="40.3" y2="13.2"/>
	<line fill="none" stroke="#FFFFFF" stroke-miterlimit="10" x1="39.9" y1="13.2" x2="39.9" y2="6.6"/>
	<line fill="none" stroke="#FFFFFF" stroke-miterlimit="10" x1="45.8" y1="28.1" x2="45.8" y2="14.4"/>
	<polygon fill="none" stroke="#FFFFFF" stroke-miterlimit="10" points="47.7,13.6 40.3,16.6 40.3,13.3 47.7,10.4 	"/>
	<polygon fill="none" stroke="#FFFFFF" stroke-miterlimit="10" points="32.6,13 40.1,16.6 40.1,13.3 32.6,9.7 	"/>
	<line fill="none" stroke="#FFFFFF" stroke-miterlimit="10" x1="0.6" y1="47.1" x2="20.4" y2="56.2"/>
	<line fill="none" stroke="#FFFFFF" stroke-miterlimit="10" x1="39.9" y1="6.6" x2="47.8" y2="10.3"/>
	<line fill="none" stroke="#FFFFFF" stroke-miterlimit="10" x1="19.4" y1="12.3" x2="39.1" y2="21.4"/>
	<line fill="none" stroke="#FFFFFF" stroke-miterlimit="10" x1="40.1" y1="6.6" x2="32.5" y2="9.6"/>
</g>
</svg>
