<?xml version="1.0" encoding="utf-8"?>
<!-- Generator: Adobe Illustrator 17.1.0, SVG Export Plug-In . SVG Version: 6.00 Build 0)  -->
<!DOCTYPE svg PUBLIC "-//W3C//DTD SVG 1.1//EN" "http://www.w3.org/Graphics/SVG/1.1/DTD/svg11.dtd">
<svg version="1.1" id="Layer_1" xmlns="http://www.w3.org/2000/svg" xmlns:xlink="http://www.w3.org/1999/xlink" x="0px" y="0px"
	 viewBox="0 0 60 60" enable-background="new 0 0 60 60" xml:space="preserve">
<polygon fill="none" stroke="#FFFFFF" stroke-miterlimit="10" points="53,40.9 7.1,59 7.1,44 5.1,43 5.1,39.1 7.1,40 7.1,25.8 
	5.1,24.9 5.1,19.3 51.1,1.3 51.1,7 53,7.8 53,22.4 51.1,23.2 51.1,25.8 52.9,26.8 "/>
<line fill="none" stroke="#FFFFFF" stroke-miterlimit="10" x1="7.1" y1="44" x2="52.9" y2="26.8"/>
<line fill="none" stroke="#FFFFFF" stroke-miterlimit="10" x1="5.1" y1="43" x2="51.1" y2="25.6"/>
<line fill="none" stroke="#FFFFFF" stroke-miterlimit="10" x1="7" y1="40" x2="53.1" y2="22.4"/>
<line fill="none" stroke="#FFFFFF" stroke-miterlimit="10" x1="7.1" y1="25.8" x2="53.1" y2="7.9"/>
<line fill="none" stroke="#FFFFFF" stroke-miterlimit="10" x1="5.1" y1="24.9" x2="51.2" y2="6.9"/>
<path fill="none" stroke="#FFFFFF" stroke-miterlimit="10" d="M12.7,19.1c0.3,0.7-0.1,1.5-0.8,1.7L10,21.6c-0.7,0.3-1.5-0.1-1.7-0.8
	l0,0c-0.3-0.7,0.1-1.5,0.8-1.7l1.9-0.7C11.7,18.1,12.5,18.5,12.7,19.1L12.7,19.1z"/>
<path fill="none" stroke="#FFFFFF" stroke-miterlimit="10" d="M24.2,14.7c0.3,0.7-0.1,1.5-0.8,1.7l-1.9,0.7
	c-0.7,0.3-1.5-0.1-1.7-0.8l0,0c-0.3-0.7,0.1-1.5,0.8-1.7l1.9-0.7C23.1,13.7,23.9,14,24.2,14.7L24.2,14.7z"/>
<path fill="none" stroke="#FFFFFF" stroke-miterlimit="10" d="M35.5,10.2c0.3,0.7-0.1,1.5-0.8,1.7l-1.9,0.7
	c-0.7,0.3-1.5-0.1-1.7-0.8l0,0c-0.3-0.7,0.1-1.5,0.8-1.7l1.9-0.7C34.5,9.2,35.2,9.5,35.5,10.2L35.5,10.2z"/>
<path fill="none" stroke="#FFFFFF" stroke-miterlimit="10" d="M47.2,5.6c0.3,0.7-0.1,1.5-0.8,1.7l-1.9,0.7C43.8,8.4,43,8,42.8,7.4
	l0,0c-0.3-0.7,0.1-1.5,0.8-1.7l1.9-0.7C46.2,4.6,46.9,5,47.2,5.6L47.2,5.6z"/>
</svg>
