<?xml version="1.0" encoding="utf-8"?>
<!-- Generator: Adobe Illustrator 17.1.0, SVG Export Plug-In . SVG Version: 6.00 Build 0)  -->
<!DOCTYPE svg PUBLIC "-//W3C//DTD SVG 1.1//EN" "http://www.w3.org/Graphics/SVG/1.1/DTD/svg11.dtd">
<svg version="1.1" id="Layer_1" xmlns="http://www.w3.org/2000/svg" xmlns:xlink="http://www.w3.org/1999/xlink" x="0px" y="0px"
	 viewBox="0 0 60 60" enable-background="new 0 0 60 60" xml:space="preserve">
<g>
	<polygon fill="none" stroke="#FFFFFF" stroke-miterlimit="10" points="51.4,42.3 7.9,59.4 7.9,47.5 2.9,49.2 2.9,36.4 7.9,34.5 
		7.9,24.3 6,23.5 6,18.2 49.6,1.1 49.6,6.5 51.4,7.3 51.4,17.6 56.5,15.8 56.5,28.8 51.2,30.9 	"/>
	<line fill="none" stroke="#FFFFFF" stroke-miterlimit="10" x1="7.9" y1="24.3" x2="51.5" y2="7.4"/>
	<line fill="none" stroke="#FFFFFF" stroke-miterlimit="10" x1="6" y1="23.5" x2="49.7" y2="6.5"/>
	<path fill="none" stroke="#FFFFFF" stroke-miterlimit="10" d="M13.2,18c0.3,0.7-0.1,1.4-0.7,1.6l-1.8,0.7c-0.7,0.3-1.4-0.1-1.6-0.7
		l0,0C8.8,19,9.1,18.3,9.8,18l1.8-0.7C12.3,17.1,13,17.4,13.2,18L13.2,18z"/>
	<path fill="none" stroke="#FFFFFF" stroke-miterlimit="10" d="M24.1,13.8c0.3,0.7-0.1,1.4-0.7,1.6l-1.8,0.7
		c-0.7,0.3-1.4-0.1-1.6-0.7l0,0c-0.3-0.7,0.1-1.4,0.7-1.6l1.8-0.7C23.1,12.8,23.8,13.2,24.1,13.8L24.1,13.8z"/>
	<path fill="none" stroke="#FFFFFF" stroke-miterlimit="10" d="M34.8,9.6c0.3,0.7-0.1,1.4-0.7,1.6l-1.8,0.7
		c-0.7,0.3-1.4-0.1-1.6-0.7l0,0c-0.3-0.7,0.1-1.4,0.7-1.6l1.8-0.7C33.8,8.6,34.6,8.9,34.8,9.6L34.8,9.6z"/>
	<path fill="none" stroke="#FFFFFF" stroke-miterlimit="10" d="M45.9,5.4C46.2,6,45.8,6.7,45.2,7l-1.8,0.7C42.7,7.9,42,7.6,41.7,7
		l0,0c-0.3-0.7,0.1-1.4,0.7-1.6l1.8-0.7C44.9,4.4,45.7,4.7,45.9,5.4L45.9,5.4z"/>
	<polygon fill="none" stroke="#FFFFFF" stroke-miterlimit="10" points="21.2,40.7 4.9,47 4.9,38.7 21.2,32.4 	"/>
	<polygon fill="none" stroke="#FFFFFF" stroke-miterlimit="10" points="54.8,27.8 24.1,39.5 24.1,31.2 54.8,19.5 	"/>
	<polygon fill="none" stroke="#FFFFFF" stroke-miterlimit="10" points="49.8,18.7 33.5,25 33.5,16.7 49.8,10.4 	"/>
	<polygon fill="none" stroke="#FFFFFF" stroke-miterlimit="10" points="31.2,25.9 10,33.9 10,25.6 31.2,17.5 	"/>
	<polygon fill="none" stroke="#FFFFFF" stroke-miterlimit="10" points="49.8,41 33.5,47.3 33.5,39 49.8,32.7 	"/>
	<polygon fill="none" stroke="#FFFFFF" stroke-miterlimit="10" points="31.9,47.8 10.2,56.3 10.2,48 31.9,39.5 	"/>
</g>
</svg>
